<svg xmlns="http://www.w3.org/2000/svg" width="32" height="32" viewBox="0 0 32 32" fill="none">
  <rect width="32" height="32" rx="8" fill="#8B6F47"/>
  <g transform="translate(4, 3)" stroke="#FAF7F2" stroke-width="2" stroke-linecap="round" stroke-linejoin="round" fill="none">
    <path d="M11 21A7 7 0 0 1 9.8 7.9C7.2 8.4 5 11 5 14c0 3.9 3.1 7 7 7"/>
    <path d="M15.7 5a5 5 0 0 0-4 7.9A7 7 0 0 1 19 6.3 4.9 4.9 0 0 0 15.7 5z"/>
    <path d="M12 21V11"/>
    <path d="M12 15c2-2 4-2.5 5-2"/>
    <path d="M12 18c-1.5-1.5-3.5-2-4.5-1.5"/>
  </g>
</svg>
